<?xml version="1.0" encoding="UTF-8" standalone="no"?>
<!-- Created with Inkscape (http://www.inkscape.org/) -->

<svg
   width="336"
   height="336"
   viewBox="0 0 88.9 88.9"
   version="1.1"
   id="svg1"
   inkscape:version="1.4.2 (f4327f4, 2025-05-13)"
   sodipodi:docname="logo.svg"
   xml:space="preserve"
   inkscape:export-filename="resources\button.png"
   inkscape:export-xdpi="96"
   inkscape:export-ydpi="96"
   xmlns:inkscape="http://www.inkscape.org/namespaces/inkscape"
   xmlns:sodipodi="http://sodipodi.sourceforge.net/DTD/sodipodi-0.dtd"
   xmlns:xlink="http://www.w3.org/1999/xlink"
   xmlns="http://www.w3.org/2000/svg"
   xmlns:svg="http://www.w3.org/2000/svg"><sodipodi:namedview
     id="namedview1"
     pagecolor="#e8e8e8"
     bordercolor="#000000"
     borderopacity="0.25"
     inkscape:showpageshadow="2"
     inkscape:pageopacity="0.0"
     inkscape:pagecheckerboard="true"
     inkscape:deskcolor="#d1d1d1"
     inkscape:document-units="px"
     inkscape:zoom="1.9268111"
     inkscape:cx="139.34941"
     inkscape:cy="162.44457"
     inkscape:current-layer="svg1" /><defs
     id="defs1"><linearGradient
       id="linearGradient4"><stop
         style="stop-color:#023c7f;stop-opacity:1;"
         offset="0"
         id="stop23" /><stop
         style="stop-color:#025baa;stop-opacity:1;"
         offset="1"
         id="stop22" /></linearGradient><linearGradient
       id="linearGradient4-2"><stop
         style="stop-color:#f6f6f9;stop-opacity:1;"
         offset="0"
         id="stop20" /><stop
         style="stop-color:#f3f3f6;stop-opacity:1;"
         offset="1"
         id="stop21" /></linearGradient><linearGradient
       id="linearGradient12"
       inkscape:collect="always"><stop
         style="stop-color:#000000;stop-opacity:1;"
         offset="0"
         id="stop12" /><stop
         style="stop-color:#000000;stop-opacity:0;"
         offset="1"
         id="stop13" /></linearGradient><marker
       style="overflow:visible"
       id="marker12"
       refX="0"
       refY="0"
       orient="auto-start-reverse"
       inkscape:stockid="Wide arrow"
       markerWidth="1"
       markerHeight="1"
       viewBox="0 0 1 1"
       inkscape:isstock="true"
       inkscape:collect="always"
       preserveAspectRatio="xMidYMid"><path
         style="fill:none;stroke:context-stroke;stroke-width:1;stroke-linecap:butt"
         d="M 3,-3 0,0 3,3"
         transform="rotate(180,0.125,0)"
         sodipodi:nodetypes="ccc"
         id="path12" /></marker><marker
       style="overflow:visible"
       id="ArrowWide"
       refX="0"
       refY="0"
       orient="auto-start-reverse"
       inkscape:stockid="Wide arrow"
       markerWidth="1"
       markerHeight="1"
       viewBox="0 0 1 1"
       inkscape:isstock="true"
       inkscape:collect="always"
       preserveAspectRatio="xMidYMid"><path
         style="fill:none;stroke:context-stroke;stroke-width:1;stroke-linecap:butt"
         d="M 3,-3 0,0 3,3"
         transform="rotate(180,0.125,0)"
         sodipodi:nodetypes="ccc"
         id="path1" /></marker><linearGradient
       id="linearGradient4-1"><stop
         style="stop-color:#25272d;stop-opacity:1;"
         offset="0"
         id="stop5" /><stop
         style="stop-color:#31374a;stop-opacity:1;"
         offset="1"
         id="stop4" /></linearGradient><linearGradient
       inkscape:collect="always"
       xlink:href="#linearGradient4-2"
       id="linearGradient5"
       x1="-14.035494"
       y1="72.575607"
       x2="107.06182"
       y2="9.0755873"
       gradientUnits="userSpaceOnUse" /><linearGradient
       inkscape:collect="always"
       xlink:href="#linearGradient4"
       id="linearGradient7"
       x1="2.1168594"
       y1="110.27571"
       x2="77.396599"
       y2="-17.636648"
       gradientUnits="userSpaceOnUse" /><linearGradient
       inkscape:collect="always"
       xlink:href="#linearGradient12"
       id="linearGradient13"
       x1="34.991146"
       y1="27.648956"
       x2="34.991146"
       y2="65.881241"
       gradientUnits="userSpaceOnUse"
       gradientTransform="matrix(0.9338521,0,0,0.93385236,1.3480981,14.211336)" /><linearGradient
       inkscape:collect="always"
       xlink:href="#linearGradient12"
       id="linearGradient14"
       gradientUnits="userSpaceOnUse"
       x1="34.991146"
       y1="27.648956"
       x2="34.991146"
       y2="65.881241"
       gradientTransform="matrix(0.89537523,0,0,0.89537528,34.568552,-17.920152)" /><filter
       style="color-interpolation-filters:sRGB;"
       inkscape:label="Blur"
       id="filter4"
       x="-0.33806107"
       y="-0.15657726"
       width="1.6761221"
       height="1.2701818"><feGaussianBlur
         stdDeviation="1"
         result="blur"
         id="feGaussianBlur4" /></filter></defs><g
     inkscape:groupmode="layer"
     id="layer2"
     inkscape:label="bg"
     style="display:inline"><rect
       style="display:inline;fill:#000000;fill-opacity:1;stroke:none;stroke-width:3.175;stroke-dasharray:none"
       id="rect1"
       width="85.725006"
       height="85.725006"
       x="1.587497"
       y="1.587497"
       ry="16.933332"
       inkscape:label="black" /><rect
       style="display:inline;fill:url(#linearGradient5);stroke:none;stroke-width:3.175;stroke-dasharray:none"
       id="rect7"
       width="79.375"
       height="79.375"
       x="4.7624998"
       y="4.7624998"
       ry="13.758333"
       inkscape:label="outer" /><rect
       style="display:inline;fill:url(#linearGradient7);stroke:none;stroke-width:3.175;stroke-dasharray:none"
       id="rect3"
       width="71.4375"
       height="71.4375"
       x="8.7312498"
       y="8.7312498"
       ry="10.583333"
       inkscape:label="inner" /><path
       id="path76"
       style="baseline-shift:baseline;display:inline;overflow:visible;opacity:0.15;vector-effect:none;fill:#ffffff;enable-background:accumulate;stop-color:#000000"
       d="M 12.1698,8.7302165 V 12.1698 H 8.7302165 v 1.05885 H 12.1698 v 9.525 H 8.7302165 V 23.8125 H 12.1698 v 9.525517 H 8.7302165 V 34.39635 H 12.1698 V 43.9198 H 8.7302165 v 1.05885 H 12.1698 v 9.525 H 8.7302165 V 55.5625 H 12.1698 v 9.525517 H 8.7302165 V 66.14635 H 12.1698 V 75.6698 H 8.7302165 v 1.05885 H 12.1698 v 3.439066 h 1.05885 V 76.72865 h 9.525 v 3.439066 H 23.8125 V 76.72865 h 9.525517 v 3.439066 H 34.39635 V 76.72865 h 9.52345 v 3.439066 H 44.45 44.97865 V 76.72865 h 9.525 v 3.439066 H 55.5625 V 76.72865 h 9.525517 v 3.439066 H 66.14635 V 76.72865 h 9.52345 v 3.439066 h 1.05885 V 76.72865 h 3.439066 V 75.6698 H 76.72865 v -9.52345 h 3.439066 V 65.088017 H 76.72865 V 55.5625 h 3.439066 V 54.50365 H 76.72865 v -9.525 h 3.439066 V 43.9198 H 76.72865 v -9.52345 h 3.439066 V 33.338017 H 76.72865 V 23.8125 h 3.439066 V 22.75365 H 76.72865 v -9.525 h 3.439066 V 12.1698 H 76.72865 V 8.7302165 H 75.6698 V 12.1698 H 66.14635 V 8.7302165 H 65.088017 V 12.1698 H 55.5625 V 8.7302165 H 54.50365 V 12.1698 h -9.525 V 8.7302165 H 43.9198 V 12.1698 H 34.39635 V 8.7302165 H 33.338017 V 12.1698 H 23.8125 V 8.7302165 H 22.75365 V 12.1698 h -9.525 V 8.7302165 Z m 1.05885,4.4984335 h 9.525 v 9.525 h -9.525 z m 10.58385,0 h 9.525517 v 9.525 H 23.8125 Z m 10.58385,0 h 9.52345 v 9.525 h -9.52345 z m 10.5823,0 h 9.525 v 9.525 h -9.525 z m 10.58385,0 h 9.525517 v 9.525 H 55.5625 Z m 10.58385,0 h 9.52345 v 9.525 H 66.14635 Z M 13.22865,23.8125 h 9.525 v 9.525517 h -9.525 z m 10.58385,0 h 9.525517 v 9.525517 H 23.8125 Z m 10.58385,0 h 9.52345 v 9.525517 h -9.52345 z m 10.5823,0 h 9.525 v 9.525517 h -9.525 z m 10.58385,0 h 9.525517 v 9.525517 H 55.5625 Z m 10.58385,0 h 9.52345 v 9.525517 h -9.52345 z m -52.9177,10.58385 h 9.525 v 9.52345 h -9.525 z m 10.58385,0 h 9.525517 V 43.9198 H 23.8125 Z m 10.58385,0 h 9.52345 v 9.52345 h -9.52345 z m 10.5823,0 h 9.525 v 9.52345 h -9.525 z m 10.58385,0 h 9.525517 V 43.9198 H 55.5625 Z m 10.58385,0 h 9.52345 v 9.52345 h -9.52345 z m -52.9177,10.5823 h 9.525 v 9.525 h -9.525 z m 10.58385,0 h 9.525517 v 9.525 H 23.8125 Z m 10.58385,0 h 9.52345 v 9.525 h -9.52345 z m 10.5823,0 h 9.525 v 9.525 h -9.525 z m 10.58385,0 h 9.525517 v 9.525 H 55.5625 Z m 10.58385,0 h 9.52345 v 9.525 H 66.14635 Z M 13.22865,55.5625 h 9.525 v 9.525517 h -9.525 z m 10.58385,0 h 9.525517 v 9.525517 H 23.8125 Z m 10.58385,0 h 9.52345 v 9.525517 h -9.52345 z m 10.5823,0 h 9.525 v 9.525517 h -9.525 z m 10.58385,0 h 9.525517 v 9.525517 H 55.5625 Z m 10.58385,0 h 9.52345 v 9.525517 h -9.52345 z m -52.9177,10.58385 h 9.525 v 9.52345 h -9.525 z m 10.58385,0 h 9.525517 V 75.6698 H 23.8125 Z m 10.58385,0 h 9.52345 v 9.52345 h -9.52345 z m 10.5823,0 h 9.525 v 9.52345 h -9.525 z m 10.58385,0 h 9.525517 V 75.6698 H 55.5625 Z m 10.58385,0 h 9.52345 v 9.52345 h -9.52345 z"
       inkscape:label="grid" /><rect
       style="display:none;opacity:0.5;fill:none;stroke:#ffffff;stroke-width:1.05833;stroke-dasharray:3.17499, 1.05833;stroke-dashoffset:0;stroke-opacity:1"
       id="rect2"
       width="32.808327"
       height="32.808334"
       x="-62.400696"
       y="29.759417"
       inkscape:label="dashed block"
       transform="scale(-1,1)" /><path
       id="use5"
       style="display:none;opacity:0.5;fill:none;stroke:#ffffff;stroke-width:1.05833;stroke-dasharray:3.175, 1.05833"
       inkscape:label="dashed spike"
       d="M 60.764365,9.3414783 76.828688,41.560412 H 44.675769 Z"
       sodipodi:nodetypes="cccc" /></g><g
     inkscape:label="geometry dash style"
     inkscape:groupmode="layer"
     id="layer1"
     style="display:inline"><g
       id="g19"
       inkscape:label="spike with arrow"
       transform="translate(-7.2589868,7.150617)"
       style="display:inline"><g
         id="g18"
         inkscape:label="spike"><path
           id="rect13"
           style="display:inline;fill:url(#linearGradient14);stroke:#ffffff;stroke-width:2.11666;stroke-dasharray:6.34998, 4.23332;stroke-dashoffset:0;stroke-opacity:1"
           d="M 65.898759,8.7312498 81.119672,39.173077 H 50.677846 Z"
           sodipodi:nodetypes="cccc" /><path
           id="path7"
           style="display:inline;fill:none;stroke:#ffffff;stroke-width:2.11666;stroke-dasharray:none;stroke-opacity:1;filter:url(#filter4)"
           d="M 65.898759,8.7312498 81.119672,39.173077 H 50.677846 Z"
           sodipodi:nodetypes="cccc" /></g><use
         x="0"
         y="0"
         xlink:href="#g17"
         id="use17"
         transform="rotate(90,67.311293,56.586252)" /></g><g
       id="g20"
       inkscape:label="block with arrow"
       transform="matrix(-1,0,0,1,72.612861,-1.1361161)"
       style="display:inline"><g
         id="g7"
         inkscape:label="block"><rect
           style="display:inline;fill:url(#linearGradient13);stroke:#ffffff;stroke-width:2.11666;stroke-dasharray:6.34998, 4.23332;stroke-dashoffset:0;stroke-opacity:1"
           id="rect8"
           width="31.749998"
           height="31.750008"
           x="18.149656"
           y="42.00803" /><rect
           style="display:inline;fill:none;stroke:#ffffff;stroke-width:2.11666;stroke-dasharray:none;stroke-dashoffset:0;stroke-opacity:1;filter:url(#filter4)"
           id="rect4"
           width="31.749998"
           height="31.750008"
           x="18.149656"
           y="42.00803" /></g><g
         id="g17"
         inkscape:label="arrow"
         transform="translate(1.0583333)"><path
           id="path17"
           style="baseline-shift:baseline;display:inline;overflow:visible;vector-effect:none;fill:#ffffff;filter:url(#filter4);enable-background:accumulate;stop-color:#000000"
           d="m 54.507784,40.949438 -3.550688,3.548621 0.749825,0.749825 2.271696,-2.271696 v 30.045195 l -2.271696,-2.27118 -0.749825,0.747758 3.550688,3.549138 3.548621,-3.549138 -0.747758,-0.747758 -2.271696,2.27118 V 42.976188 l 2.271696,2.271696 0.747758,-0.749825 z" /><path
           style="fill:none;fill-opacity:1;stroke:#ffffff;stroke-width:1.05833;stroke-dasharray:none;stroke-dashoffset:0;stroke-opacity:1;marker-start:url(#ArrowWide);marker-end:url(#marker12)"
           d="M 54.507151,74.03445 V 41.962635"
           id="path8"
           sodipodi:nodetypes="cc" /></g></g><g
       id="g10"
       inkscape:label="patch"><rect
         style="fill:#ffffff;stroke:none;stroke-width:1.05833;stroke-dasharray:6.34997, 4.23333;stroke-dashoffset:0"
         id="rect5"
         width="6.5397077"
         height="1.6992941"
         x="48.981827"
         y="40.226677" /><rect
         style="fill:#ffffff;stroke:none;stroke-width:1.05833;stroke-dasharray:6.34997, 4.23333;stroke-dashoffset:0"
         id="rect6"
         width="6.5397077"
         height="1.6992941"
         x="21.654877"
         y="71.564743" /><rect
         style="fill:#ffffff;stroke:none;stroke-width:1.05833;stroke-dasharray:6.34997, 4.23333;stroke-dashoffset:0"
         id="rect9"
         width="6.5397077"
         height="1.6992941"
         x="67.138977"
         y="-55.106884"
         transform="rotate(90)" /><rect
         style="fill:#ffffff;stroke:none;stroke-width:1.05833;stroke-dasharray:6.34997, 4.23333;stroke-dashoffset:0"
         id="rect10"
         width="6.5397077"
         height="1.6992941"
         x="39.812027"
         y="-23.76882"
         transform="rotate(90)" /></g></g><g
     inkscape:groupmode="layer"
     id="layer3"
     inkscape:label="geode style"
     style="display:none"><g
       id="g1"
       inkscape:label="fusion"
       transform="translate(9.9159241e-7,-1.0824019)"><path
         id="rect23"
         style="display:inline;fill:#ffffff;fill-opacity:1;stroke:none;stroke-width:1.05833;stroke-dasharray:none;stroke-opacity:1"
         d="m 54.078095,20.344275 -9.627837,19.256189 h 5.931938 V 51.464339 H 69.638385 Z M 50.382196,51.464339 H 38.518321 L 44.450258,39.600464 H 19.261615 v 31.120064 h 31.120581 z"
         inkscape:label="fusion" /><path
         id="path30"
         style="display:inline;fill:#ffffff;fill-opacity:1;stroke:none;stroke-width:1.05833;stroke-dasharray:none;stroke-opacity:1;filter:url(#filter4)"
         d="m 54.078095,20.344275 -9.627837,19.256189 h 5.931938 V 51.464339 H 69.638385 Z M 50.382196,51.464339 H 38.518321 L 44.450258,39.600464 H 19.261615 v 31.120064 h 31.120581 z"
         inkscape:label="fusion blur" /></g><g
       id="g40"
       transform="translate(-1.0583323)"><path
         style="fill:none;fill-opacity:1;stroke:#ffffff;stroke-width:1.05833;stroke-dasharray:none;stroke-dashoffset:0;stroke-opacity:1;marker-start:url(#ArrowWide);marker-end:url(#marker12)"
         d="M 15.028282,68.610724 V 39.537482"
         id="path32"
         sodipodi:nodetypes="cc"
         inkscape:label="arrow" /><g
         id="path33"
         style="opacity:1"
         transform="translate(1.0582293,0.264156)"><path
           style="baseline-shift:baseline;display:inline;overflow:visible;vector-effect:none;fill:#ffffff;enable-background:accumulate;stop-color:#000000;stop-opacity:1"
           d="m 13.969948,38.518062 h 5.291667"
           id="path34" /><path
           style="baseline-shift:baseline;display:inline;overflow:visible;vector-effect:none;fill:#ffffff;enable-background:accumulate;stop-color:#000000;stop-opacity:1"
           d="m 13.970703,38.253906 v 1.058464 h 5.291016 v -1.058464 z"
           id="path35"
           sodipodi:nodetypes="ccccc" /></g><g
         id="g39"
         style="opacity:1"
         transform="translate(1.0582293,30.854923)"><path
           style="baseline-shift:baseline;display:inline;overflow:visible;vector-effect:none;fill:#ffffff;enable-background:accumulate;stop-color:#000000;stop-opacity:1"
           d="m 13.969948,38.518062 h 5.291667"
           id="path38" /><path
           style="baseline-shift:baseline;display:inline;overflow:visible;vector-effect:none;fill:#ffffff;enable-background:accumulate;stop-color:#000000;stop-opacity:1"
           d="m 13.970703,37.724739 v 1.058464 h 5.291016 v -1.058464 z"
           id="path39"
           sodipodi:nodetypes="ccccc" /></g></g><g
       id="g45"><path
         style="fill:none;fill-opacity:1;stroke:#ffffff;stroke-width:1.05833;stroke-dasharray:none;stroke-dashoffset:0;stroke-opacity:1;marker-start:url(#ArrowWide);marker-end:url(#marker12)"
         d="M 59.275158,17.814352 73.92697,47.112003"
         id="path40"
         sodipodi:nodetypes="cc"
         inkscape:label="arrow" /><g
         id="g42"
         transform="rotate(153.5,43.022166,50.248987)"><path
           style="baseline-shift:baseline;display:inline;overflow:visible;vector-effect:none;fill:#ffffff;enable-background:accumulate;stop-color:#000000;stop-opacity:1"
           d="m 13.969948,38.518062 h 5.291667"
           id="path41" /><path
           style="baseline-shift:baseline;display:inline;overflow:visible;vector-effect:none;fill:#ffffff;enable-background:accumulate;stop-color:#000000;stop-opacity:1"
           d="m 13.970703,38.253906 v 1.058464 h 5.291016 v -1.058464 z"
           id="path42"
           sodipodi:nodetypes="ccccc" /></g><g
         id="g44"
         transform="rotate(153.5,38.968238,33.121622)"><path
           style="baseline-shift:baseline;display:inline;overflow:visible;vector-effect:none;fill:#ffffff;enable-background:accumulate;stop-color:#000000;stop-opacity:1"
           d="m 13.969948,38.518062 h 5.291667"
           id="path43" /><path
           style="baseline-shift:baseline;display:inline;overflow:visible;vector-effect:none;fill:#ffffff;enable-background:accumulate;stop-color:#000000;stop-opacity:1"
           d="m 13.970703,37.724739 v 1.058464 h 5.291016 v -1.058464 z"
           id="path44"
           sodipodi:nodetypes="ccccc" /></g></g></g></svg>
