<?xml version="1.0" encoding="UTF-8" standalone="no"?>
<!-- Created with Inkscape (http://www.inkscape.org/) -->

<svg
   width="176"
   height="176"
   viewBox="0 0 46.566666 46.566666"
   version="1.1"
   id="svg1"
   inkscape:version="1.4.2 (f4327f4, 2025-05-13)"
   sodipodi:docname="button.svg"
   xml:space="preserve"
   inkscape:export-filename="button.png"
   inkscape:export-xdpi="96"
   inkscape:export-ydpi="96"
   xmlns:inkscape="http://www.inkscape.org/namespaces/inkscape"
   xmlns:sodipodi="http://sodipodi.sourceforge.net/DTD/sodipodi-0.dtd"
   xmlns:xlink="http://www.w3.org/1999/xlink"
   xmlns="http://www.w3.org/2000/svg"
   xmlns:svg="http://www.w3.org/2000/svg"><sodipodi:namedview
     id="namedview1"
     pagecolor="#ffffff"
     bordercolor="#000000"
     borderopacity="0.25"
     inkscape:showpageshadow="2"
     inkscape:pageopacity="0.0"
     inkscape:pagecheckerboard="true"
     inkscape:deskcolor="#d1d1d1"
     inkscape:document-units="px"
     inkscape:zoom="1.9268111"
     inkscape:cx="100.1655"
     inkscape:cy="67.46899"
     inkscape:current-layer="layer1"
     showguides="true" /><defs
     id="defs1"><linearGradient
       id="linearGradient4"><stop
         style="stop-color:#023c7f;stop-opacity:1;"
         offset="0"
         id="stop23" /><stop
         style="stop-color:#025baa;stop-opacity:1;"
         offset="1"
         id="stop22" /></linearGradient><linearGradient
       id="linearGradient4-2"><stop
         style="stop-color:#f6f6f9;stop-opacity:1;"
         offset="0"
         id="stop20" /><stop
         style="stop-color:#f3f3f6;stop-opacity:1;"
         offset="1"
         id="stop21" /></linearGradient><linearGradient
       id="linearGradient12"
       inkscape:collect="always"><stop
         style="stop-color:#000000;stop-opacity:1;"
         offset="0"
         id="stop12" /><stop
         style="stop-color:#000000;stop-opacity:0;"
         offset="1"
         id="stop13" /></linearGradient><marker
       style="overflow:visible"
       id="marker12"
       refX="0"
       refY="0"
       orient="auto-start-reverse"
       inkscape:stockid="Wide arrow"
       markerWidth="1"
       markerHeight="1"
       viewBox="0 0 1 1"
       inkscape:isstock="true"
       inkscape:collect="always"
       preserveAspectRatio="xMidYMid"><path
         style="fill:none;stroke:context-stroke;stroke-width:1;stroke-linecap:butt"
         d="M 3,-3 0,0 3,3"
         transform="rotate(180,0.125,0)"
         sodipodi:nodetypes="ccc"
         id="path12" /></marker><marker
       style="overflow:visible"
       id="ArrowWide"
       refX="0"
       refY="0"
       orient="auto-start-reverse"
       inkscape:stockid="Wide arrow"
       markerWidth="1"
       markerHeight="1"
       viewBox="0 0 1 1"
       inkscape:isstock="true"
       inkscape:collect="always"
       preserveAspectRatio="xMidYMid"><path
         style="fill:none;stroke:context-stroke;stroke-width:1;stroke-linecap:butt"
         d="M 3,-3 0,0 3,3"
         transform="rotate(180,0.125,0)"
         sodipodi:nodetypes="ccc"
         id="path1" /></marker><linearGradient
       id="linearGradient4-1"><stop
         style="stop-color:#25272d;stop-opacity:1;"
         offset="0"
         id="stop5" /><stop
         style="stop-color:#31374a;stop-opacity:1;"
         offset="1"
         id="stop4" /></linearGradient><linearGradient
       inkscape:collect="always"
       xlink:href="#linearGradient12"
       id="linearGradient13"
       x1="34.991146"
       y1="27.648956"
       x2="34.991146"
       y2="65.881241"
       gradientUnits="userSpaceOnUse"
       gradientTransform="matrix(0.9338521,0,0,0.93385236,1.3480981,14.211336)" /><linearGradient
       inkscape:collect="always"
       xlink:href="#linearGradient12"
       id="linearGradient14"
       gradientUnits="userSpaceOnUse"
       x1="34.991146"
       y1="27.648956"
       x2="34.991146"
       y2="65.881241"
       gradientTransform="matrix(0.89537523,0,0,0.89537528,34.568552,-17.920152)" /><filter
       style="color-interpolation-filters:sRGB"
       inkscape:label="Blur"
       id="filter4"
       x="-0.33806107"
       y="-0.15657726"
       width="1.6761221"
       height="1.2701818"><feGaussianBlur
         stdDeviation="1"
         result="blur"
         id="feGaussianBlur4" /></filter><linearGradient
       inkscape:collect="always"
       xlink:href="#linearGradient4"
       id="linearGradient2"
       x1="27.54175"
       y1="73.184029"
       x2="61.361816"
       y2="15.723096"
       gradientUnits="userSpaceOnUse"
       gradientTransform="matrix(0.89795918,0,0,0.89795918,0.40533919,0.48633138)" /><clipPath
       clipPathUnits="userSpaceOnUse"
       id="clipPath4"><circle
         style="display:inline;fill:#ffffff;stroke-width:1.05833;stroke-dasharray:6.34997, 4.23333"
         id="circle5"
         cx="44.451782"
         cy="44.453564"
         inkscape:label="inner"
         r="33.337502" /></clipPath></defs><g
     inkscape:groupmode="layer"
     id="layer5"
     inkscape:label="circle"
     style="display:inline"
     inkscape:highlight-color="#35f3ac"
     transform="matrix(0.62825934,0,0,0.62825934,-2.4956429,-2.9943245)"><circle
       style="display:inline;opacity:0.4;fill:#000000;stroke-width:0.950334;stroke-dasharray:5.70201, 3.80136"
       id="circle3"
       cx="41.743534"
       cy="43.248444"
       inkscape:label="shadow"
       r="35.637756" /><circle
       style="display:inline;fill:#ffffff;stroke-width:0.950334;stroke-dasharray:5.70201, 3.80136"
       id="path2"
       cx="40.321224"
       cy="40.403816"
       inkscape:label="white"
       r="35.637756" /><circle
       style="display:inline;fill:#000000;stroke-width:0.950334;stroke-dasharray:5.70201, 3.80136"
       id="circle2"
       cx="40.321224"
       cy="40.403816"
       inkscape:label="black"
       r="33.024319" /><circle
       style="display:inline;fill:url(#linearGradient2);stroke-width:0.950334;stroke-dasharray:5.70201, 3.80136"
       id="circle1"
       cx="40.321224"
       cy="40.403816"
       inkscape:label="inner"
       r="29.935715" /><path
       id="path76"
       style="baseline-shift:baseline;display:inline;overflow:visible;opacity:0.15;vector-effect:none;fill:#ffffff;enable-background:accumulate;stop-color:#000000"
       d="M 12.1698,8.7302165 V 12.1698 H 8.7302165 v 1.05885 H 12.1698 v 9.525 H 8.7302165 V 23.8125 H 12.1698 v 9.525517 H 8.7302165 V 34.39635 H 12.1698 V 43.9198 H 8.7302165 v 1.05885 H 12.1698 v 9.525 H 8.7302165 V 55.5625 H 12.1698 v 9.525517 H 8.7302165 V 66.14635 H 12.1698 V 75.6698 H 8.7302165 v 1.05885 H 12.1698 v 3.439066 h 1.05885 V 76.72865 h 9.525 v 3.439066 H 23.8125 V 76.72865 h 9.525517 v 3.439066 H 34.39635 V 76.72865 h 9.52345 v 3.439066 H 44.45 44.97865 V 76.72865 h 9.525 v 3.439066 H 55.5625 V 76.72865 h 9.525517 v 3.439066 H 66.14635 V 76.72865 h 9.52345 v 3.439066 h 1.05885 V 76.72865 h 3.439066 V 75.6698 H 76.72865 v -9.52345 h 3.439066 V 65.088017 H 76.72865 V 55.5625 h 3.439066 V 54.50365 H 76.72865 v -9.525 h 3.439066 V 43.9198 H 76.72865 v -9.52345 h 3.439066 V 33.338017 H 76.72865 V 23.8125 h 3.439066 V 22.75365 H 76.72865 v -9.525 h 3.439066 V 12.1698 H 76.72865 V 8.7302165 H 75.6698 V 12.1698 H 66.14635 V 8.7302165 H 65.088017 V 12.1698 H 55.5625 V 8.7302165 H 54.50365 V 12.1698 h -9.525 V 8.7302165 H 43.9198 V 12.1698 H 34.39635 V 8.7302165 H 33.338017 V 12.1698 H 23.8125 V 8.7302165 H 22.75365 V 12.1698 h -9.525 V 8.7302165 Z m 1.05885,4.4984335 h 9.525 v 9.525 h -9.525 z m 10.58385,0 h 9.525517 v 9.525 H 23.8125 Z m 10.58385,0 h 9.52345 v 9.525 h -9.52345 z m 10.5823,0 h 9.525 v 9.525 h -9.525 z m 10.58385,0 h 9.525517 v 9.525 H 55.5625 Z m 10.58385,0 h 9.52345 v 9.525 H 66.14635 Z M 13.22865,23.8125 h 9.525 v 9.525517 h -9.525 z m 10.58385,0 h 9.525517 v 9.525517 H 23.8125 Z m 10.58385,0 h 9.52345 v 9.525517 h -9.52345 z m 10.5823,0 h 9.525 v 9.525517 h -9.525 z m 10.58385,0 h 9.525517 v 9.525517 H 55.5625 Z m 10.58385,0 h 9.52345 v 9.525517 h -9.52345 z m -52.9177,10.58385 h 9.525 v 9.52345 h -9.525 z m 10.58385,0 h 9.525517 V 43.9198 H 23.8125 Z m 10.58385,0 h 9.52345 v 9.52345 h -9.52345 z m 10.5823,0 h 9.525 v 9.52345 h -9.525 z m 10.58385,0 h 9.525517 V 43.9198 H 55.5625 Z m 10.58385,0 h 9.52345 v 9.52345 h -9.52345 z m -52.9177,10.5823 h 9.525 v 9.525 h -9.525 z m 10.58385,0 h 9.525517 v 9.525 H 23.8125 Z m 10.58385,0 h 9.52345 v 9.525 h -9.52345 z m 10.5823,0 h 9.525 v 9.525 h -9.525 z m 10.58385,0 h 9.525517 v 9.525 H 55.5625 Z m 10.58385,0 h 9.52345 v 9.525 H 66.14635 Z M 13.22865,55.5625 h 9.525 v 9.525517 h -9.525 z m 10.58385,0 h 9.525517 v 9.525517 H 23.8125 Z m 10.58385,0 h 9.52345 v 9.525517 h -9.52345 z m 10.5823,0 h 9.525 v 9.525517 h -9.525 z m 10.58385,0 h 9.525517 v 9.525517 H 55.5625 Z m 10.58385,0 h 9.52345 v 9.525517 h -9.52345 z m -52.9177,10.58385 h 9.525 v 9.52345 h -9.525 z m 10.58385,0 h 9.525517 V 75.6698 H 23.8125 Z m 10.58385,0 h 9.52345 v 9.52345 h -9.52345 z m 10.5823,0 h 9.525 v 9.52345 h -9.525 z m 10.58385,0 h 9.525517 V 75.6698 H 55.5625 Z m 10.58385,0 h 9.52345 v 9.52345 h -9.52345 z"
       inkscape:label="grid"
       clip-path="url(#clipPath4)"
       transform="matrix(0.89795918,0,0,0.89795918,0.40533916,0.48633152)" /></g><g
     inkscape:label="geometry dash style"
     inkscape:groupmode="layer"
     id="layer1"
     style="display:inline"
     transform="matrix(0.95408158,0,0,0.95408158,-4.4700542,1.0838585)"><g
       id="g19"
       inkscape:label="spike with arrow"
       transform="matrix(0.49694562,0,0,0.49694562,3.3844438,3.1436551)"
       style="display:inline"><g
         id="g18"
         inkscape:label="spike"><path
           id="rect13"
           style="display:inline;fill:url(#linearGradient14);stroke:#ffffff;stroke-width:2.11666;stroke-dasharray:6.34998, 4.23332;stroke-dashoffset:0;stroke-opacity:1"
           d="M 65.898759,8.7312498 81.119672,39.173077 H 50.677846 Z"
           sodipodi:nodetypes="cccc" /><path
           id="path7"
           style="display:inline;fill:none;stroke:#ffffff;stroke-width:2.11666;stroke-dasharray:none;stroke-opacity:1;filter:url(#filter4)"
           d="M 65.898759,8.7312498 81.119672,39.173077 H 50.677846 Z"
           sodipodi:nodetypes="cccc" /></g><use
         x="0"
         y="0"
         xlink:href="#g17"
         id="use17"
         transform="rotate(90,67.311293,56.586252)" /></g><g
       id="g20"
       inkscape:label="block with arrow"
       transform="matrix(-0.48997967,0,0,0.48997967,42.836333,-0.5754911)"
       style="display:inline"
       clip-path="none"><g
         id="g7"
         inkscape:label="block"><rect
           style="display:inline;fill:url(#linearGradient13);stroke:#ffffff;stroke-width:2.11666;stroke-dasharray:6.34998, 4.23332;stroke-dashoffset:0;stroke-opacity:1"
           id="rect8"
           width="31.749998"
           height="31.750008"
           x="18.149656"
           y="42.00803" /><rect
           style="display:inline;fill:none;stroke:#ffffff;stroke-width:2.11666;stroke-dasharray:none;stroke-dashoffset:0;stroke-opacity:1;filter:url(#filter4)"
           id="rect4"
           width="31.749998"
           height="31.750008"
           x="18.149656"
           y="42.00803" /></g><g
         id="g17"
         inkscape:label="arrow"
         transform="translate(1.0583333)"><path
           id="path17"
           style="baseline-shift:baseline;display:inline;overflow:visible;vector-effect:none;fill:#ffffff;filter:url(#filter4);enable-background:accumulate;stop-color:#000000"
           d="m 54.507784,40.949438 -3.550688,3.548621 0.749825,0.749825 2.271696,-2.271696 v 30.045195 l -2.271696,-2.27118 -0.749825,0.747758 3.550688,3.549138 3.548621,-3.549138 -0.747758,-0.747758 -2.271696,2.27118 V 42.976188 l 2.271696,2.271696 0.747758,-0.749825 z" /><path
           style="fill:none;fill-opacity:1;stroke:#ffffff;stroke-width:1.05833;stroke-dasharray:none;stroke-dashoffset:0;stroke-opacity:1;marker-start:url(#ArrowWide);marker-end:url(#marker12)"
           d="M 54.507151,74.03445 V 41.962635"
           id="path8"
           sodipodi:nodetypes="cc" /></g><g
         id="g10"
         inkscape:label="patch"
         transform="matrix(-1,0,0,1,72.612872,1.136116)"
         style="display:inline"><rect
           style="fill:#ffffff;stroke:none;stroke-width:1.05833;stroke-dasharray:6.34997, 4.23333;stroke-dashoffset:0"
           id="rect5"
           width="6.5397077"
           height="1.6992941"
           x="48.981827"
           y="40.226677" /><rect
           style="fill:#ffffff;stroke:none;stroke-width:1.05833;stroke-dasharray:6.34997, 4.23333;stroke-dashoffset:0"
           id="rect6"
           width="6.5397077"
           height="1.6992941"
           x="21.654877"
           y="71.564743" /><rect
           style="fill:#ffffff;stroke:none;stroke-width:1.05833;stroke-dasharray:6.34997, 4.23333;stroke-dashoffset:0"
           id="rect9"
           width="6.5397077"
           height="1.6992941"
           x="67.138977"
           y="-55.106884"
           transform="rotate(90)" /><rect
           style="fill:#ffffff;stroke:none;stroke-width:1.05833;stroke-dasharray:6.34997, 4.23333;stroke-dashoffset:0"
           id="rect10"
           width="6.5397077"
           height="1.6992941"
           x="39.812027"
           y="-23.76882"
           transform="rotate(90)" /></g></g></g></svg>
